<?xml version="1.0" standalone="no"?>
<!DOCTYPE svg PUBLIC "-//W3C//DTD SVG 20010904//EN"
 "http://www.w3.org/TR/2001/REC-SVG-20010904/DTD/svg10.dtd">
<svg version="1.0" xmlns="http://www.w3.org/2000/svg"
 width="800.000000pt" height="800.000000pt" viewBox="0 0 800.000000 800.000000"
 preserveAspectRatio="xMidYMid meet">

<g transform="translate(0.000000,800.000000) scale(0.100000,-0.100000)"
fill="#000000" stroke="none">
<path d="M1788 6313 c-16 -20 -28 -49 -28 -66 0 -16 18 -104 40 -195 113 -470
150 -753 150 -1162 0 -313 -21 -539 -70 -755 -5 -22 -12 -58 -15 -80 -4 -21
-22 -96 -42 -165 -19 -69 -37 -134 -40 -145 -5 -16 -59 -204 -103 -355 -59
-204 -132 -489 -164 -645 -10 -44 -21 -98 -27 -120 -9 -38 -26 -138 -48 -285
-37 -235 -71 -681 -57 -751 9 -49 60 -99 100 -99 35 1 61 18 88 57 13 21 18
47 18 108 0 120 28 453 51 610 28 190 72 408 120 595 22 85 51 196 64 245 12
50 44 162 70 250 26 88 62 216 80 285 18 69 44 166 58 215 26 99 47 193 72
330 9 50 20 110 25 135 5 25 12 89 15 143 3 54 10 135 15 180 16 135 11 408
-10 627 -24 242 -36 341 -49 395 -6 22 -18 81 -26 130 -26 144 -91 427 -106
465 -6 14 -20 40 -32 57 -20 30 -27 33 -72 33 -46 -1 -52 -4 -77 -37z"/>
<path d="M6078 6322 c-27 -26 -31 -42 -89 -277 -9 -40 -18 -88 -64 -350 -95
-541 -95 -1088 0 -1595 21 -114 42 -196 89 -355 8 -27 24 -86 35 -130 18 -74
36 -137 76 -270 35 -114 88 -302 95 -335 4 -19 13 -55 19 -80 52 -190 85 -346
136 -647 24 -146 45 -386 45 -533 0 -156 9 -197 50 -233 43 -38 90 -36 136 5
l35 32 -4 226 c-5 218 -12 297 -56 580 -28 180 -58 338 -86 450 -8 30 -37 145
-64 255 -56 224 -65 256 -131 475 -18 58 -36 119 -40 135 -4 17 -18 66 -30
110 -12 44 -26 96 -31 115 -4 19 -16 69 -27 110 -30 118 -76 398 -92 559 -27
278 -2 769 54 1061 8 41 23 122 32 180 9 58 32 165 50 238 42 165 44 228 8
271 -22 27 -32 31 -72 30 -37 0 -53 -6 -74 -27z"/>
<path d="M3640 5441 c-43 -23 -75 -66 -85 -111 -11 -54 -21 -60 -91 -60 -72 0
-160 -33 -207 -78 -114 -108 -78 -340 62 -412 21 -10 66 -24 102 -30 35 -7 74
-14 87 -16 22 -4 23 -8 17 -62 -11 -106 -9 -102 -68 -102 -97 0 -190 -35 -246
-91 -55 -55 -74 -104 -74 -195 -1 -69 3 -86 25 -125 57 -96 148 -149 256 -149
83 0 86 -4 73 -86 -6 -38 -12 -80 -14 -94 -2 -23 -7 -25 -77 -33 -162 -17
-236 -57 -287 -156 -38 -73 -44 -146 -16 -226 35 -105 159 -185 283 -185 32 0
62 -5 66 -11 9 -15 5 -212 -5 -222 -4 -4 -55 -12 -112 -17 -122 -11 -141 -15
-192 -47 -75 -47 -136 -186 -123 -277 22 -142 139 -231 331 -252 33 -4 66 -11
73 -17 7 -6 12 -36 12 -81 0 -104 14 -141 75 -202 96 -96 264 -144 505 -144
262 0 459 59 542 161 42 53 61 130 46 196 -15 69 -5 79 75 85 84 6 167 33 224
71 101 68 143 226 92 342 -52 118 -139 167 -302 170 -54 2 -101 6 -105 10 -8
8 -19 204 -12 214 3 4 40 13 83 19 152 23 248 95 281 210 20 73 20 92 -1 159
-20 65 -99 153 -158 177 -22 10 -66 16 -111 16 -40 0 -84 4 -98 9 -23 9 -25
15 -28 98 -2 48 1 94 6 101 5 7 30 12 57 12 60 0 149 30 195 65 40 31 94 137
102 200 6 58 -22 136 -71 191 -59 67 -91 82 -203 94 -54 7 -102 14 -105 18 -4
4 -11 37 -16 75 -11 77 -8 81 52 91 142 22 191 44 229 105 71 113 62 258 -22
344 -50 52 -92 69 -191 76 l-83 6 -21 55 c-28 78 -50 105 -95 118 -58 18 -67
16 -156 -30 l-81 -43 -125 0 c-125 1 -125 1 -195 38 -87 47 -129 53 -175 28z
m638 -276 c5 -25 39 -63 73 -80 14 -8 75 -19 135 -25 117 -12 135 -21 127 -64
-6 -31 -12 -33 -140 -46 -113 -11 -138 -22 -176 -72 -14 -19 -21 -49 -25 -103
-4 -66 -8 -78 -26 -85 -45 -17 -165 -33 -248 -33 -81 1 -222 26 -242 43 -4 5
-9 37 -10 72 -2 70 -28 126 -72 154 -13 9 -68 20 -131 26 -112 11 -143 24
-143 60 0 24 38 38 103 38 79 0 168 17 190 37 11 10 31 35 44 57 27 42 27 41
133 17 75 -17 227 -13 305 8 83 23 99 22 103 -4z m36 -712 c19 -37 64 -79 99
-92 16 -6 72 -11 125 -11 103 0 113 -3 131 -37 30 -58 5 -79 -106 -88 -114 -9
-155 -20 -193 -51 -50 -43 -64 -79 -64 -173 l-1 -85 -70 -18 c-101 -28 -353
-29 -448 -3 -77 21 -74 16 -80 142 -6 135 -38 163 -204 181 -58 7 -117 19
-129 27 -34 22 -40 53 -15 79 19 18 36 22 141 26 132 6 160 17 192 79 9 18 18
35 21 37 3 3 44 -2 92 -11 108 -20 296 -21 393 -2 40 8 76 18 79 21 12 12 23
6 37 -21z m-509 -778 c109 -20 311 -19 431 2 93 15 99 15 109 -2 49 -83 75
-94 225 -97 114 -3 123 -4 141 -27 50 -62 4 -105 -125 -116 -109 -9 -153 -23
-191 -60 -36 -37 -58 -116 -49 -175 19 -116 -59 -153 -326 -154 -179 0 -278
18 -325 61 -25 24 -27 30 -21 74 4 27 4 72 0 101 -14 103 -105 158 -262 158
-57 0 -67 3 -93 29 -33 34 -36 51 -11 80 15 18 32 21 147 27 75 4 141 12 156
20 15 7 39 34 54 59 20 35 31 45 43 40 10 -3 53 -13 97 -20z m-93 -809 c128
-43 425 -46 572 -6 80 21 106 21 106 -2 0 -8 13 -28 29 -45 41 -45 94 -57 218
-48 100 7 102 6 128 -19 45 -45 25 -102 -45 -125 -19 -7 -69 -14 -110 -17
-184 -14 -242 -80 -227 -261 4 -57 2 -67 -19 -92 -54 -65 -277 -97 -485 -70
-114 15 -182 35 -213 64 -25 23 -26 29 -26 129 0 133 -11 155 -96 196 -34 17
-78 30 -98 30 -65 0 -180 30 -198 52 -24 27 -23 71 3 94 18 16 42 20 163 24
158 6 181 14 218 76 23 39 23 39 80 20z"/>
</g>
</svg>
