<?xml version="1.0" standalone="no"?>
<!DOCTYPE svg PUBLIC "-//W3C//DTD SVG 20010904//EN"
 "http://www.w3.org/TR/2001/REC-SVG-20010904/DTD/svg10.dtd">
<svg version="1.0" xmlns="http://www.w3.org/2000/svg"
 width="800.000000pt" height="800.000000pt" viewBox="0 0 800.000000 800.000000"
 preserveAspectRatio="xMidYMid meet">

<g transform="translate(0.000000,800.000000) scale(0.100000,-0.100000)"
fill="#000000" stroke="none">
<path d="M3085 6649 c-16 -5 -46 -14 -65 -20 -129 -40 -247 -140 -310 -263 -8
-16 -45 -54 -81 -85 -36 -31 -80 -75 -97 -97 -18 -23 -47 -47 -65 -54 -155
-57 -264 -137 -376 -275 -91 -113 -111 -165 -111 -293 l0 -83 -63 -67 c-34
-37 -72 -83 -85 -103 -36 -59 -55 -154 -48 -238 l6 -73 -41 -47 c-95 -107
-130 -248 -97 -390 11 -50 11 -52 -21 -91 -45 -56 -88 -151 -107 -240 -15 -65
-16 -87 -5 -160 6 -47 19 -103 27 -126 16 -41 16 -41 -27 -125 -49 -97 -69
-184 -69 -289 1 -68 16 -155 35 -203 4 -9 3 -23 -3 -30 -5 -6 -18 -47 -28 -89
-10 -43 -21 -78 -26 -78 -4 0 -8 -67 -8 -150 0 -82 4 -150 9 -150 12 0 26 -97
21 -140 -3 -19 -5 -125 -5 -235 0 -233 10 -298 77 -525 15 -51 84 -197 120
-255 47 -74 123 -160 176 -198 65 -46 187 -97 233 -97 21 0 41 -5 44 -11 4 -6
27 -8 58 -5 216 22 362 100 563 300 115 115 157 166 249 296 44 62 46 65 106
165 24 39 48 77 55 85 7 8 47 83 89 165 43 83 94 174 114 204 45 70 159 214
176 223 10 6 12 -13 11 -90 0 -53 1 -128 2 -167 6 -113 2 -153 -17 -177 -16
-20 -26 -22 -90 -20 -68 3 -73 1 -101 -27 -24 -24 -30 -38 -30 -73 1 -74 48
-108 149 -108 80 0 85 -8 77 -117 -8 -96 -20 -138 -43 -147 -8 -3 -34 -1 -59
5 -92 24 -174 -22 -174 -98 0 -76 40 -105 155 -113 l80 -5 11 -78 c8 -63 15
-82 40 -108 48 -51 146 -86 279 -100 109 -12 113 -12 245 0 168 14 278 53 318
110 11 17 19 53 22 101 l5 75 90 5 c95 6 124 16 149 52 34 49 8 130 -49 154
-20 8 -68 14 -113 14 -55 0 -83 4 -91 14 -11 13 -22 199 -13 223 3 9 26 13 71
13 88 0 130 21 149 76 14 38 14 44 -5 80 -24 46 -63 62 -155 63 -38 1 -70 6
-74 12 -8 14 -6 440 2 448 3 3 13 -5 23 -18 9 -12 32 -42 51 -65 35 -40 85
-110 105 -144 6 -10 19 -31 30 -47 12 -17 31 -50 43 -75 13 -25 27 -52 32 -60
35 -56 90 -151 90 -156 0 -8 118 -202 166 -271 76 -110 155 -205 269 -319 156
-157 201 -188 388 -268 21 -9 55 -16 77 -16 21 0 42 -4 45 -10 8 -12 102 -13
109 -1 3 4 27 10 54 13 67 7 190 68 258 130 126 116 233 302 280 488 53 213
55 231 54 500 -1 149 4 284 10 325 16 97 23 275 12 299 -5 12 -22 60 -37 108
l-28 88 17 71 c10 40 20 93 23 118 8 68 -23 203 -69 302 l-40 86 21 70 c27 91
28 213 1 316 -22 90 -29 104 -83 176 -39 53 -40 55 -29 98 19 71 14 147 -14
231 -15 42 -33 84 -40 93 -8 8 -14 19 -14 24 0 4 -18 32 -41 61 -38 50 -40 56
-30 85 37 107 -9 238 -121 349 l-69 68 -2 104 c-2 98 -4 109 -39 179 -21 41
-64 104 -99 142 -85 94 -253 211 -330 230 -14 4 -57 38 -95 77 -37 39 -83 80
-102 93 -18 12 -44 42 -57 67 -13 25 -52 79 -88 120 -48 57 -79 83 -128 107
-127 64 -170 73 -335 73 -133 -1 -154 -3 -194 -23 -87 -42 -101 -127 -29 -175
30 -21 41 -23 94 -18 166 18 186 18 232 6 56 -16 90 -33 156 -78 118 -82 130
-203 29 -294 -41 -37 -121 -78 -151 -78 -9 0 -21 -4 -26 -9 -10 -9 -65 -24
-214 -57 l-74 -16 -74 76 c-61 63 -82 78 -128 91 -59 17 -47 20 -240 -52 -55
-20 -134 -9 -210 30 -71 36 -140 41 -195 13 -19 -10 -67 -49 -106 -88 l-71
-70 -47 16 c-26 9 -56 16 -67 16 -40 0 -176 42 -246 75 -90 44 -149 107 -159
170 -5 36 -1 51 20 87 39 67 67 90 166 140 42 21 58 23 217 23 166 0 173 1
195 23 29 29 30 97 2 135 -36 49 -71 57 -232 56 -81 0 -160 -5 -177 -10z
m2092 -601 c21 -28 43 -106 43 -152 0 -45 -3 -51 -58 -105 -91 -87 -212 -144
-463 -215 -69 -20 -128 -21 -135 -2 -3 7 -1 46 3 86 l8 72 80 19 c138 33 187
49 275 91 77 37 170 109 170 131 0 11 53 87 61 87 4 0 11 -6 16 -12z m-2449
-27 c16 -37 111 -131 154 -153 109 -56 169 -78 308 -113 118 -31 111 -23 108
-117 l-3 -83 -35 3 c-19 2 -60 10 -90 19 -139 40 -246 75 -254 84 -6 5 -16 9
-22 9 -21 0 -137 71 -177 109 -51 48 -67 80 -67 138 0 53 32 133 52 133 7 0
19 -13 26 -29z m-273 -225 c45 -144 205 -275 440 -358 39 -14 86 -30 105 -37
39 -14 63 -21 200 -52 203 -46 192 -41 265 -131 50 -61 65 -88 63 -107 l-3
-26 -100 1 c-379 1 -865 134 -1115 304 -62 42 -85 70 -114 137 -18 40 -18 43
0 90 10 26 28 64 40 83 41 66 179 180 194 163 4 -5 16 -34 25 -67z m1278 55
c109 -49 278 -54 390 -10 l58 22 27 -22 c15 -12 48 -36 74 -54 73 -50 82 -71
73 -185 -8 -109 -16 -128 -75 -192 -126 -135 -160 -198 -160 -297 0 -38 9
-112 20 -164 63 -295 86 -806 49 -1113 -25 -211 -40 -265 -159 -566 -12 -30
-24 -66 -26 -80 -3 -14 -11 -47 -19 -75 -8 -27 -19 -71 -26 -98 -6 -26 -15
-50 -19 -52 -21 -13 -41 29 -63 142 -15 73 -41 159 -66 216 -63 149 -90 233
-115 362 -35 177 -50 379 -42 552 18 397 30 507 78 765 19 102 20 123 9 171
-13 61 -62 136 -147 230 -73 82 -82 104 -83 223 l-2 102 31 23 c17 13 56 45
86 72 30 26 56 47 59 47 3 0 24 -9 48 -19z m1752 -7 c63 -42 113 -94 153 -159
30 -49 36 -69 36 -112 -1 -65 -21 -97 -105 -168 -100 -85 -343 -194 -524 -235
-22 -5 -69 -16 -105 -25 -139 -33 -546 -76 -584 -62 -31 12 -17 55 47 139 69
91 76 95 212 117 153 25 378 96 505 158 63 31 182 116 222 159 38 41 78 126
78 166 0 56 9 59 65 22z m-3359 -575 c80 -90 339 -221 549 -279 17 -5 62 -17
100 -28 169 -47 441 -89 675 -105 40 -2 39 9 21 -147 -7 -58 -17 -109 -22
-115 -18 -18 -442 -11 -531 8 -90 20 -176 42 -226 58 -21 7 -57 19 -82 27 -25
8 -54 18 -65 22 -11 4 -42 16 -70 26 -71 25 -269 128 -326 170 -88 64 -159
159 -159 211 0 31 32 93 71 138 36 41 40 42 65 14z m3701 -46 c55 -70 59 -114
20 -189 -17 -32 -102 -116 -156 -153 -42 -30 -209 -113 -281 -141 -30 -11 -64
-24 -75 -29 -44 -19 -112 -41 -127 -41 -9 0 -29 -6 -45 -14 -15 -8 -82 -28
-148 -43 -113 -26 -133 -28 -346 -28 -276 0 -263 -6 -273 123 -4 48 -9 101
-12 118 l-6 31 79 6 c265 22 445 49 623 92 160 40 235 63 265 82 11 7 27 13
36 13 34 0 247 121 327 186 61 50 71 49 119 -13z m-3860 -450 c91 -71 264
-170 373 -215 14 -5 39 -16 55 -23 61 -26 112 -44 200 -70 50 -15 101 -31 115
-36 125 -43 406 -75 558 -65 59 5 121 9 137 9 l30 2 0 -115 c0 -112 -1 -114
-25 -127 -195 -98 -465 -134 -665 -89 -89 20 -255 74 -269 87 -6 5 -17 9 -26
9 -14 0 -109 46 -210 101 -85 47 -214 141 -266 196 -112 116 -142 215 -97 316
25 55 40 58 90 20z m4012 -4 c17 -22 25 -50 28 -93 5 -53 2 -69 -22 -115 -15
-30 -48 -76 -73 -104 -49 -52 -183 -162 -217 -179 -11 -5 -29 -14 -40 -21 -82
-50 -120 -70 -195 -102 -200 -86 -383 -129 -545 -129 -143 1 -326 37 -380 74
-5 4 -26 13 -46 19 -63 20 -70 35 -67 147 l3 99 185 -3 c180 -3 336 11 445 39
22 6 67 18 100 26 139 36 421 139 450 165 5 4 15 8 23 8 20 0 174 96 239 151
32 26 65 48 74 48 8 1 26 -13 38 -30z m131 -510 c0 -9 7 -33 15 -52 19 -46 19
-136 1 -179 -8 -18 -17 -40 -21 -48 -16 -41 -41 -72 -117 -149 -86 -86 -224
-185 -338 -241 -36 -18 -74 -37 -85 -43 -11 -5 -76 -29 -145 -52 -243 -82
-426 -83 -610 -3 -152 66 -280 144 -366 221 l-46 42 7 79 c9 88 2 86 105 47
250 -93 557 -90 855 8 127 42 148 50 260 104 163 80 257 142 356 236 l94 89
17 -21 c10 -12 18 -29 18 -38z m-4299 34 c32 -37 218 -178 306 -229 144 -85
311 -162 403 -184 19 -5 71 -18 115 -29 138 -34 298 -46 433 -32 64 6 149 21
187 32 39 11 85 24 103 29 18 4 39 13 47 20 29 24 42 4 47 -71 3 -42 1 -83 -5
-96 -6 -13 -34 -37 -63 -53 -28 -17 -57 -37 -64 -45 -7 -8 -17 -15 -22 -15 -6
0 -23 -9 -39 -21 -49 -35 -170 -95 -247 -123 -136 -48 -313 -54 -457 -15 -285
79 -511 203 -683 376 -139 139 -173 256 -120 411 21 64 35 74 59 45z m-46
-654 c78 -79 167 -139 368 -247 202 -109 435 -171 642 -172 95 0 228 20 266
40 10 6 25 10 34 10 27 0 245 112 335 173 46 30 89 53 96 50 8 -3 18 -19 23
-36 17 -56 59 -168 65 -174 14 -15 3 -39 -46 -97 -29 -33 -55 -63 -58 -66 -7
-6 -114 -132 -199 -234 -35 -42 -72 -88 -82 -104 -10 -15 -35 -52 -56 -82 -21
-30 -69 -116 -107 -190 -67 -132 -180 -318 -238 -391 -15 -20 -28 -40 -28 -44
0 -4 -12 -22 -27 -40 -16 -19 -44 -55 -63 -80 -57 -75 -254 -260 -315 -295
-87 -50 -152 -70 -225 -70 -98 0 -153 24 -235 101 -64 62 -155 191 -155 222 0
7 -4 17 -8 23 -29 32 -92 285 -92 369 l0 29 58 -55 c55 -54 152 -130 201 -157
157 -89 463 -76 556 24 47 50 23 136 -45 164 -33 14 -47 12 -135 -21 -50 -18
-73 -20 -139 -15 -65 5 -89 12 -145 42 -197 110 -355 389 -367 649 -6 122 4
146 41 98 54 -68 226 -193 340 -247 188 -89 337 -126 517 -129 l120 -2 24 28
c36 42 34 114 -3 149 -24 23 -42 28 -130 38 -191 21 -273 40 -385 93 -40 19
-80 37 -88 41 -16 6 -18 7 -126 78 -83 55 -201 178 -247 258 -31 53 -32 60
-32 165 0 103 11 155 33 155 4 0 30 -23 57 -51z m4416 14 c21 -62 15 -190 -10
-248 -46 -103 -150 -227 -236 -280 -16 -10 -39 -26 -50 -36 -11 -9 -42 -29
-70 -43 -27 -15 -57 -31 -65 -35 -37 -21 -111 -50 -170 -68 -57 -17 -301 -53
-313 -46 -4 3 -24 2 -43 -1 -27 -6 -38 -15 -54 -46 -28 -56 -26 -93 9 -132
l29 -33 114 2 c143 3 227 17 353 58 175 57 393 189 488 295 28 31 51 49 58 44
8 -5 10 -39 6 -118 -5 -113 -23 -184 -77 -301 -66 -144 -211 -303 -329 -358
-84 -40 -185 -43 -279 -9 -82 29 -107 28 -143 -7 -39 -40 -41 -105 -4 -149 41
-49 197 -88 314 -79 163 13 292 77 418 207 58 61 83 74 83 43 0 -32 -31 -188
-52 -258 -34 -118 -80 -226 -104 -246 -8 -7 -21 -24 -29 -38 -18 -35 -103
-118 -140 -137 -58 -30 -111 -44 -171 -44 -137 0 -233 56 -421 247 -185 187
-323 384 -465 663 -79 155 -184 310 -282 418 -28 31 -95 111 -148 177 -52 66
-103 127 -112 134 -17 14 -21 41 -8 56 4 6 15 35 24 65 10 30 23 75 31 99 7
25 18 46 24 48 6 2 27 -10 46 -26 19 -17 38 -31 42 -31 3 0 25 -13 48 -29 37
-25 121 -67 242 -121 94 -42 210 -69 320 -73 109 -5 333 31 435 68 261 97 494
231 615 354 27 28 52 51 56 51 4 0 13 -17 20 -37z m-2061 -938 c0 -101 -2
-117 -17 -123 -33 -13 -330 -7 -347 7 -13 11 -16 35 -16 119 l0 105 33 -27
c104 -85 213 -87 292 -6 21 22 43 40 47 40 4 0 8 -52 8 -115z m11 -352 c15
-15 23 -221 9 -238 -6 -7 -33 -16 -62 -19 -79 -11 -316 -8 -339 4 -18 10 -19
19 -15 131 3 66 7 123 10 127 7 12 385 7 397 -5z m17 -478 c8 -3 12 -28 12
-77 1 -40 5 -93 9 -117 5 -25 7 -50 5 -56 -3 -6 -30 -20 -62 -30 -80 -25 -327
-25 -383 1 l-40 17 6 116 c4 64 8 125 10 136 4 19 11 20 217 17 117 -2 219 -5
226 -7z"/>
</g>
</svg>
